<svg width="140" height="28" viewBox="0 0 140 28" fill="none" xmlns="http://www.w3.org/2000/svg">
<g clip-path="url(#clip0_3344_16332)">
<path d="M131.932 7.96977C131.775 9.04488 131.19 10.0198 130.38 10.7284C129.57 11.4365 128.534 11.8701 127.467 11.8787H127.459H127.451C125.317 11.8701 123.834 10.1204 124.156 7.96977C124.312 6.89466 124.889 5.91968 125.699 5.21111C126.509 4.50296 127.545 4.06983 128.611 4.06123H128.62H128.628C128.712 4.06123 128.795 4.06123 128.879 4.06983L128.579 6.11949C128.495 6.10316 128.411 6.095 128.32 6.095C127.295 6.10316 126.339 6.93678 126.181 7.96977C126.031 8.99503 126.742 9.83681 127.767 9.83681C128.478 9.83681 129.148 9.42817 129.547 8.83819H128.177L128.427 7.15678H131.963L131.972 7.42792C131.978 7.60281 131.959 7.78672 131.932 7.96977ZM136.32 11.5929L138.041 0.0585938H123.366L120.789 17.3595H124.469L123.943 20.9282H127.642L123.571 23.4526L122.908 27.9417H137.583L139.999 11.5929H136.32Z" fill="#FFE743"/>
<path d="M13.3649 16.1441L18.273 16.1699L17.756 19.5989L17.637 19.6895C15.5246 21.3147 13.3482 21.9777 10.1254 21.9777C5.46665 21.9777 2.76427 19.1408 3.40109 14.9182C4.04778 10.6302 7.52405 7.85948 12.2555 7.85948C15.5921 7.85948 17.588 8.70771 19.0937 10.7793L21.8618 9.4021C20.0356 6.47027 17.1428 5.10254 12.7831 5.10254C6.20186 5.10254 0.996494 9.1387 0.124636 14.9182C-0.760973 20.79 3.13553 24.7346 9.82121 24.7346C12.8888 24.7346 15.192 24.0918 17.5231 22.5844L17.915 22.3313L18.1896 24.4601H20.1881L21.8743 13.2827H12.5378L13.3649 16.1441Z" fill="black"/>
<path d="M104.855 13.5225L98.588 12.8294C96.9551 12.6502 95.2355 12.3116 95.5006 10.5533C95.7846 8.67119 97.8644 7.75636 101.859 7.75636C105.172 7.75636 107.454 8.34762 109.673 9.79141L111.562 7.56815C109.125 5.84162 106.326 5.10254 102.26 5.10254C97.8231 5.10254 92.8653 6.54375 92.2551 10.5881C91.806 13.565 93.5807 15.1764 97.8386 15.6594L104.474 16.3521C105.911 16.4908 107.787 16.9102 107.481 18.9401C107.176 20.9601 104.648 22.1186 100.545 22.1186C97.011 22.1186 94.3933 21.3752 91.8391 19.6392L89.9558 21.9923C92.6023 23.9147 95.5002 24.7372 99.5943 24.7372C106.062 24.7372 110.094 22.599 110.656 18.8709C111.116 15.8257 109.163 14.0265 104.855 13.5225Z" fill="black"/>
<path d="M31.0646 16.1063H42.3068L42.7236 13.3442H30.2705L31.0646 16.1063Z" fill="black"/>
<path d="M24.7632 24.46H43.0473L43.4748 21.624H28.3606L29.6115 13.3441H29.6093L30.3806 8.23369H44.9393L45.3612 5.43506H27.6331L24.7632 24.46Z" fill="black"/>
<path d="M46.4263 24.46H64.7104L65.1379 21.624H50.0241L51.2754 13.3441H51.2733L52.0441 8.23369H66.6023L67.0247 5.43506H49.2967L46.4263 24.46Z" fill="black"/>
<path d="M52.7279 16.1063H63.9701L64.3869 13.3442H51.9343L52.7279 16.1063Z" fill="black"/>
<path d="M90.703 5.43506H87.1151L80.5179 13.3174H73.5508L74.3552 16.116H80.2077L84.6533 24.4599H88.3414L82.7657 14.7191L90.703 5.43506Z" fill="black"/>
<path d="M70.96 5.43506L68.0901 24.4599H71.2221L74.0921 5.43506H70.96Z" fill="black"/>
</g>
<defs>
<clipPath id="clip0_3344_16332">
<rect width="140" height="28" fill="white"/>
</clipPath>
</defs>
</svg>
