<svg width="46" height="67" viewBox="0 0 46 67" fill="none" xmlns="http://www.w3.org/2000/svg">
<path fill-rule="evenodd" clip-rule="evenodd" d="M6.40984 0H41.2869L37.3279 27.6883H46L40.1557 67H5.09016L6.59836 56.3216L16.4016 50.1791H7.63525L8.95492 41.8632H0L6.40984 0ZM19.5123 9.73343L18.6639 14.6474C13.0836 15.101 12.7914 19.0889 13.1025 21.1678C13.4135 23.2468 18.6639 25.2313 20.7377 21.1678H17.6271L18.3811 17.1989H26.7705C26.7705 26.2708 19.5123 28.6333 16.1189 28.6333C9.60556 28.6333 8.01229 23.5303 8.01229 19.5614C8.01229 12.3794 16.2445 9.60743 19.5123 9.73343Z" fill="#FFE600"/>
<path d="M18.6639 14.6474L19.5123 9.73343C16.2445 9.60743 8.01229 12.3794 8.01229 19.5614C8.01229 23.5303 9.60556 28.6333 16.1189 28.6333C19.5123 28.6333 26.7705 26.2708 26.7705 17.1989H18.3811L17.6271 21.1678H20.7377C18.6639 25.2313 13.4135 23.2468 13.1025 21.1678C12.7914 19.0889 13.0836 15.101 18.6639 14.6474Z" fill="#262523"/>
</svg>
