<svg width="140" height="28" viewBox="0 0 140 28" fill="none" xmlns="http://www.w3.org/2000/svg">
<g clip-path="url(#clip0_3180_17207)">
<path d="M131.932 7.9699C131.775 9.04501 131.19 10.02 130.38 10.7286C129.57 11.4367 128.534 11.8703 127.467 11.8789H127.459H127.451C125.317 11.8703 123.834 10.1206 124.156 7.9699C124.312 6.89479 124.889 5.91981 125.699 5.21124C126.509 4.50309 127.545 4.06996 128.611 4.06136H128.62H128.628C128.712 4.06136 128.795 4.06136 128.879 4.06996L128.579 6.11962C128.495 6.10329 128.411 6.09513 128.32 6.09513C127.295 6.10329 126.339 6.93691 126.181 7.9699C126.031 8.99516 126.742 9.83694 127.767 9.83694C128.478 9.83694 129.148 9.4283 129.547 8.83832H128.177L128.427 7.15691H131.963L131.972 7.42805C131.978 7.60294 131.959 7.78685 131.932 7.9699ZM136.32 11.5931L138.041 0.0587158H123.366L120.789 17.3597H124.469L123.943 20.9284H127.642L123.571 23.4528L122.908 27.9419H137.583L139.999 11.5931H136.32Z" fill="#FFE743"/>
<path d="M13.3649 16.1443L18.273 16.1701L17.756 19.5991L17.637 19.6897C15.5246 21.3149 13.3482 21.9779 10.1254 21.9779C5.46665 21.9779 2.76427 19.141 3.40109 14.9184C4.04778 10.6304 7.52405 7.85972 12.2555 7.85972C15.5921 7.85972 17.588 8.70795 19.0937 10.7795L21.8618 9.40234C20.0356 6.47051 17.1428 5.10278 12.7831 5.10278C6.20186 5.10278 0.996494 9.13894 0.124636 14.9184C-0.760973 20.7902 3.13553 24.7348 9.82121 24.7348C12.8888 24.7348 15.192 24.092 17.5231 22.5846L17.915 22.3315L18.1896 24.4603H20.1881L21.8743 13.2829H12.5378L13.3649 16.1443Z" fill="white"/>
<path d="M104.855 13.5225L98.588 12.8294C96.9551 12.6502 95.2355 12.3116 95.5006 10.5533C95.7846 8.67119 97.8644 7.75636 101.859 7.75636C105.172 7.75636 107.454 8.34762 109.673 9.79141L111.562 7.56815C109.125 5.84162 106.326 5.10254 102.26 5.10254C97.8231 5.10254 92.8653 6.54375 92.2551 10.5881C91.806 13.565 93.5807 15.1764 97.8386 15.6594L104.474 16.3521C105.911 16.4908 107.787 16.9102 107.481 18.9401C107.176 20.9601 104.648 22.1186 100.545 22.1186C97.011 22.1186 94.3933 21.3752 91.8391 19.6392L89.9558 21.9923C92.6023 23.9147 95.5002 24.7372 99.5943 24.7372C106.062 24.7372 110.094 22.599 110.656 18.8709C111.116 15.8257 109.163 14.0265 104.855 13.5225Z" fill="white"/>
<path d="M31.0646 16.1061H42.3068L42.7236 13.344H30.2705L31.0646 16.1061Z" fill="white"/>
<path d="M24.7632 24.4601H43.0473L43.4748 21.6241H28.3606L29.6115 13.3442H29.6093L30.3806 8.23381H44.9393L45.3612 5.43518H27.6331L24.7632 24.4601Z" fill="white"/>
<path d="M46.4263 24.4601H64.7104L65.1379 21.6241H50.0241L51.2754 13.3442H51.2733L52.0441 8.23381H66.6023L67.0247 5.43518H49.2967L46.4263 24.4601Z" fill="white"/>
<path d="M52.7279 16.1061H63.9701L64.3869 13.344H51.9343L52.7279 16.1061Z" fill="white"/>
<path d="M90.703 5.43506H87.1151L80.5179 13.3174H73.5508L74.3552 16.116H80.2077L84.6533 24.4599H88.3414L82.7657 14.7191L90.703 5.43506Z" fill="white"/>
<path d="M70.96 5.43506L68.0901 24.4599H71.2221L74.0921 5.43506H70.96Z" fill="white"/>
</g>
<defs>
<clipPath id="clip0_3180_17207">
<rect width="140" height="28" fill="white"/>
</clipPath>
</defs>
</svg>
