<svg width="16" height="142" viewBox="0 0 16 142" fill="none" xmlns="http://www.w3.org/2000/svg">
<path d="M9 1C9 0.447715 8.55228 2.41411e-08 8 0C7.44772 -2.41411e-08 7 0.447715 7 1L9 1ZM7.29289 141.707C7.68341 142.098 8.31658 142.098 8.7071 141.707L15.0711 135.343C15.4616 134.953 15.4616 134.319 15.0711 133.929C14.6805 133.538 14.0474 133.538 13.6568 133.929L7.99999 139.586L2.34314 133.929C1.95262 133.538 1.31945 133.538 0.928926 133.929C0.538402 134.319 0.538402 134.953 0.928926 135.343L7.29289 141.707ZM7 1L6.99999 141L8.99999 141L9 1L7 1Z" fill="#262523"/>
</svg>
