<svg width="67" height="69" viewBox="0 0 67 69" fill="none" xmlns="http://www.w3.org/2000/svg">
<path d="M46.7134 2.71745C46.7134 3.07861 46.4843 3.2331 45.9477 3.2331H45.5433V2.18704H45.9477C46.4706 2.18704 46.7134 2.35532 46.7134 2.71745ZM47.205 2.71745C47.205 2.07388 46.7702 1.73438 45.9467 1.73438H45.0654V4.38347H45.5423V3.68774H45.9467C45.9888 3.68774 46.0319 3.68774 46.076 3.68479L46.5891 4.36182L46.6057 4.38347H47.2383L46.6086 3.58933C47.0042 3.4496 47.2059 3.15635 47.2059 2.71844L47.205 2.71745Z" fill="#2B2A29"/>
<path d="M46.0811 4.98607C45.0539 4.98607 44.2177 4.14667 44.2177 3.1134C44.2177 2.08013 45.0539 1.24073 46.0811 1.24073C47.1082 1.24073 47.9445 2.08013 47.9445 3.1134C47.9445 4.14568 47.1082 4.98607 46.0811 4.98607ZM46.0811 0.919922C44.8776 0.919922 43.8984 1.90399 43.8984 3.1134C43.8984 4.32281 44.8776 5.30688 46.0811 5.30688C47.2845 5.30688 48.2637 4.32281 48.2637 3.1134C48.2637 1.90399 47.2845 0.919922 46.0811 0.919922Z" fill="#2B2A29"/>
<path d="M37.3024 28.7523L41.4375 0.910248H6.18948L0 42.6709H8.83918L7.57504 51.2864H16.4602L6.68006 57.3807L5.09083 68.2162H40.3388L46.1415 28.7523H37.3024Z" fill="#2B2A29"/>
<path d="M26.7639 20.0075C26.3879 22.6024 24.9828 24.9563 23.0371 26.6656C21.0915 28.3759 18.6033 29.422 16.0418 29.4417H16.0212H16.0007C10.8756 29.422 7.31521 25.1974 8.08779 20.0065C8.46282 17.4115 9.84838 15.0576 11.794 13.3473C13.7397 11.637 16.2288 10.591 18.7894 10.5713H18.809H18.8295C19.0293 10.5713 19.23 10.5713 19.4308 10.592L18.7111 15.5408C18.5093 15.5005 18.3086 15.4798 18.0893 15.4798C15.6276 15.5005 13.3314 17.5119 12.9524 20.0065C12.5931 22.4804 14.2998 24.5125 16.7625 24.5125C18.4692 24.5125 20.079 23.5255 21.0376 22.1025H17.7475L18.3468 18.0443H26.8413L26.8628 18.6987C26.8766 19.1208 26.8305 19.5637 26.7649 20.0065L26.7639 20.0075Z" fill="#FCE900"/>
<path d="M65.5207 57.92L66.8308 57.7508V56.5148L59.952 55.4717V61.2462L61.7126 60.7344L61.7283 57.6986L63.8394 58.0184L63.8942 58.0922C64.895 59.3991 65.3023 60.7453 65.3023 62.738C65.3023 65.6193 63.5564 67.2913 60.9576 66.8967C58.3187 66.4961 56.6129 64.3469 56.6129 61.4203C56.6129 59.3568 57.1349 58.1218 58.4098 57.1908L57.5628 55.4786C55.7581 56.6083 54.917 58.3973 54.917 61.0936C54.917 65.1637 57.4012 68.3836 60.9576 68.9228C64.5709 69.471 66.9993 67.061 66.9993 62.926C66.9993 61.0297 66.6037 59.6047 65.6764 58.1621L65.5207 57.92Z" fill="#2B2A29"/>
<path d="M58.2923 11.9416C60.1243 12.2191 61.1153 11.1219 61.413 8.48853L61.8389 4.384C61.9251 3.49539 62.1826 2.33518 63.4321 2.52511C64.6747 2.71405 65.3875 4.27674 65.3875 6.81464C65.3875 9.00024 64.9302 10.62 63.8619 12.1984L65.3102 13.3636C66.493 11.7261 66.9993 9.9351 66.9993 7.40212C66.9993 3.40191 65.6832 0.90829 63.389 0.559932C61.5148 0.276522 60.4073 1.48298 60.0979 4.14783L59.671 8.02405C59.5603 9.0337 59.3518 10.0975 58.2698 9.93313C57.1114 9.75699 56.5483 8.47082 56.5483 6.00082C56.5483 3.952 56.9126 2.54085 57.8007 1.16808L56.4328 0C55.3704 1.50758 54.916 3.23855 54.916 5.75382C54.916 8.49739 55.8032 11.5637 58.2923 11.9416Z" fill="#2B2A29"/>
<path d="M55.1211 40.9453V51.9097L66.8293 53.685V42.3771L65.0844 42.1114V51.46L59.9887 50.6866V50.6875L56.8435 50.2103V41.2071L55.1211 40.9453Z" fill="#2B2A29"/>
<path d="M59.9893 42.5762V50.2775L61.6891 49.7864V42.833L59.9893 42.5762Z" fill="#2B2A29"/>
<path d="M59.9893 29.1777V36.88L61.6891 36.3889V29.4356L59.9893 29.1777Z" fill="#2B2A29"/>
<path d="M66.8293 28.9767L65.0844 28.712V38.0606L59.9887 37.2862V37.2871L56.8435 36.8109V27.8067L55.1211 27.5449V38.5103L66.8293 40.2856V28.9767Z" fill="#2B2A29"/>
<path d="M66.8293 14.3607L60.8347 17.8099L55.1211 12.9004V15.1195L59.972 19.2004V23.5096L61.6944 23.0116V19.3923L66.8293 16.6428V14.3607Z" fill="#2B2A29"/>
<path d="M66.8293 24.9501L55.1211 23.1748V25.1124L66.8293 26.8877V24.9501Z" fill="#2B2A29"/>
</svg>
