<svg width="14" height="13" viewBox="0 0 14 13" fill="none" xmlns="http://www.w3.org/2000/svg">
<path d="M8.1665 4.75002V2.41669C8.1665 1.95256 7.98213 1.50744 7.65394 1.17925C7.32575 0.851062 6.88063 0.666687 6.4165 0.666687L4.08317 5.91669V12.3334H10.6632C10.9445 12.3365 11.2176 12.2379 11.4319 12.0557C11.6463 11.8735 11.7876 11.6199 11.8298 11.3417L12.6348 6.09169C12.6602 5.92448 12.6489 5.75375 12.6018 5.59133C12.5546 5.42892 12.4727 5.27869 12.3618 5.15107C12.2508 5.02345 12.1134 4.92148 11.9591 4.85223C11.8048 4.78298 11.6373 4.74811 11.4682 4.75002H8.1665Z" fill="#FFE600"/>
<path d="M4.08317 12.3334V5.91669H2.33317C2.02375 5.91669 1.72701 6.0396 1.50821 6.2584C1.28942 6.47719 1.1665 6.77393 1.1665 7.08335V11.1667C1.1665 11.4761 1.28942 11.7729 1.50821 11.9916C1.72701 12.2104 2.02375 12.3334 2.33317 12.3334H4.08317Z" fill="#FFE600"/>
<path d="M4.08317 5.91669L6.4165 0.666687C6.88063 0.666687 7.32575 0.851062 7.65394 1.17925C7.98213 1.50744 8.1665 1.95256 8.1665 2.41669V4.75002H11.4682C11.6373 4.74811 11.8048 4.78298 11.9591 4.85223C12.1134 4.92148 12.2508 5.02345 12.3618 5.15107C12.4727 5.27869 12.5546 5.42892 12.6018 5.59133C12.6489 5.75375 12.6602 5.92448 12.6348 6.09169L11.8298 11.3417C11.7876 11.6199 11.6463 11.8735 11.4319 12.0557C11.2176 12.2379 10.9445 12.3365 10.6632 12.3334H4.08317M4.08317 5.91669V12.3334M4.08317 5.91669H2.33317C2.02375 5.91669 1.72701 6.0396 1.50821 6.2584C1.28942 6.47719 1.1665 6.77393 1.1665 7.08335V11.1667C1.1665 11.4761 1.28942 11.7729 1.50821 11.9916C1.72701 12.2104 2.02375 12.3334 2.33317 12.3334H4.08317" stroke="#262523" stroke-width="1.16667" stroke-linecap="round" stroke-linejoin="round"/>
</svg>
